<svg width="1024" height="1024" viewBox="0 0 1024 1024" fill="none" xmlns="http://www.w3.org/2000/svg">
  <!-- Background -->
  <rect width="1024" height="1024" rx="180" fill="#1E1E1E"/>

  <!-- Terminal window frame -->
  <rect x="80" y="120" width="864" height="784" rx="24" fill="#2D2D2D" stroke="#3E3E3E" stroke-width="4"/>

  <!-- Title bar -->
  <rect x="80" y="120" width="864" height="56" rx="24" fill="#3E3E3E"/>
  <rect x="80" y="152" width="864" height="24" fill="#3E3E3E"/>

  <!-- Window buttons -->
  <circle cx="128" cy="148" r="14" fill="#FF5F56"/>
  <circle cx="176" cy="148" r="14" fill="#FFBD2E"/>
  <circle cx="224" cy="148" r="14" fill="#27C93F"/>

  <!-- Split divider -->
  <rect x="504" y="200" width="16" height="680" fill="#4E4E4E"/>

  <!-- Terminal side (left) - prompt lines -->
  <text x="120" y="280" font-family="monospace" font-size="36" fill="#6A9955">$</text>
  <text x="160" y="280" font-family="monospace" font-size="36" fill="#9CDCFE">git status</text>

  <text x="120" y="340" font-family="monospace" font-size="32" fill="#CE9178">modified: src/app.ts</text>

  <text x="120" y="400" font-family="monospace" font-size="36" fill="#6A9955">$</text>
  <text x="160" y="400" font-family="monospace" font-size="36" fill="#9CDCFE">claude</text>

  <text x="120" y="460" font-family="monospace" font-size="32" fill="#DCDCAA">▋</text>

  <!-- Diff side (right) - diff view -->
  <rect x="560" y="240" width="340" height="36" fill="#3E2828"/>
  <text x="580" y="268" font-family="monospace" font-size="28" fill="#F48771">- old code</text>

  <rect x="560" y="290" width="340" height="36" fill="#283E28"/>
  <text x="580" y="318" font-family="monospace" font-size="28" fill="#89D185">+ new code</text>

  <rect x="560" y="340" width="340" height="36" fill="transparent"/>
  <text x="580" y="368" font-family="monospace" font-size="28" fill="#808080">  context</text>

  <rect x="560" y="390" width="340" height="36" fill="#283E28"/>
  <text x="580" y="418" font-family="monospace" font-size="28" fill="#89D185">+ added</text>

  <!-- File list indicator -->
  <rect x="560" y="500" width="340" height="32" fill="#3E3E3E" rx="4"/>
  <text x="580" y="524" font-family="monospace" font-size="24" fill="#4EC9B0">M</text>
  <text x="620" y="524" font-family="monospace" font-size="24" fill="#CCCCCC">app.ts</text>

  <rect x="560" y="544" width="340" height="32" fill="transparent" rx="4"/>
  <text x="580" y="568" font-family="monospace" font-size="24" fill="#6A9955">A</text>
  <text x="620" y="568" font-family="monospace" font-size="24" fill="#808080">utils.ts</text>
</svg>
